# xmcd
#
# Track frame offsets:
#   150
#   25177
#   46847
#   70255
#   86727
#   111302
#   130987
#   155632
#   171875
#   187382
#   210227
#   229700
#
# Disc length: 3346 seconds
#
# Revision: 0
# Processed by: cddbd v1.5.2PL0 Copyright (c) Steve Scherf et al.
# Submitted via: uFREEDB ActiveX Control 1.5
#
DISCID=a60d100c
DTITLE=Furacão 2000 - Sensibilidade
DYEAR=1998
DGENRE=R and B
TTITLE0=Eddie Holmman - You Mke My Life Complete
TTITLE1=Surface - Shower Me With Your Love
TTITLE2=Jimmy Helms - I'm Gonna Make you On a Offer You Ca
TTITLE3=Dr. York - You Are Everything
TTITLE4=Major Harris - Love Won't Let Me Wait
TTITLE5=Change - Say You Love Me Again
TTITLE6=The Tymes - The Crutch
TTITLE7=Frederick - Gentle " Calling Your Name"
TTITLE8=Pointer Sister - The Love Too Good To Last
TTITLE9=The Dramatics - In The Rain
TTITLE10=Starpoint - The More We Love
TTITLE11=Barbara Mason - From His Woman To You
EXTD=
EXTT0=
EXTT1=
EXTT2=
EXTT3=
EXTT4=
EXTT5=
EXTT6=
EXTT7=
EXTT8=
EXTT9=
EXTT10=
EXTT11=
PLAYORDER=
